HIERARCHY
ROOT Hips
{
  OFFSET -15.1727 94.6743 11.4298
  CHANNELS 6 Xposition Yposition Zposition Zrotation Xrotation Yrotation
  JOINT ToSpine
  {
    OFFSET -2.69724 7.43032 -0.144315
    CHANNELS 3 Zrotation Xrotation Yrotation
    JOINT Spine
    {
      OFFSET -0.0310711 10.7595 1.96963
      CHANNELS 3 Zrotation Xrotation Yrotation
      JOINT Spine1
      {
        OFFSET 13.1342 3.43533 0.764692
        CHANNELS 3 Zrotation Xrotation Yrotation
        JOINT Neck
        {
          OFFSET 29.8703 7.82586 -0.130764
          CHANNELS 3 Zrotation Xrotation Yrotation
          JOINT Head
          {
            OFFSET 9.52751 0.295786 -0.907742
            CHANNELS 3 Zrotation Xrotation Yrotation
            End Site
            {
              OFFSET 16.4037 0.713936 2.7358
            }
          }
        }
        JOINT LeftShoulder
        {
          OFFSET 27.5574 4.95586 2.47156
          CHANNELS 3 Zrotation Xrotation Yrotation
          JOINT LeftArm
          {
            OFFSET 1.20734 -0.998971 20.1238
            CHANNELS 3 Zrotation Xrotation Yrotation
            JOINT LeftForeArm
            {
              OFFSET 26.8049 -0.0536703 -0.155908
              CHANNELS 3 Zrotation Xrotation Yrotation
              JOINT LeftHand
              {
                OFFSET 26.6817 0 0.320147
                CHANNELS 3 Zrotation Xrotation Yrotation
                End Site
                {
                  OFFSET 18.6119 0 0.382219
                }
              }
            }
          }
        }
        JOINT RightShoulder
        {
          OFFSET 27.5927 4.71444 -2.65209
          CHANNELS 3 Zrotation Xrotation Yrotation
          JOINT RightArm
          {
            OFFSET 2.83739 -1.17114 -18.7564
            CHANNELS 3 Zrotation Xrotation Yrotation
            JOINT RightForeArm
            {
              OFFSET 28.839 -0.0548439 1.22491
              CHANNELS 3 Zrotation Xrotation Yrotation
              JOINT RightHand
              {
                OFFSET 26.5114 0 -0.101894
                CHANNELS 3 Zrotation Xrotation Yrotation
                End Site
                {
                  OFFSET 18.2168 0 0
                }
              }
            }
          }
        }
      }
    }
  }
  JOINT LeftUpLeg
  {
    OFFSET -4.76168 -1.9167 -10.2353
    CHANNELS 3 Zrotation Xrotation Yrotation
    JOINT LeftLeg
    {
      OFFSET 2.55951 -42.0585 -8.02213
      CHANNELS 3 Zrotation Xrotation Yrotation
      JOINT LeftFoot
      {
        OFFSET 3.16357 -42.5282 -3.95426
        CHANNELS 3 Zrotation Xrotation Yrotation
        JOINT LeftToeBase
        {
          OFFSET 0.346054 -6.02161 12.8035
          CHANNELS 3 Zrotation Xrotation Yrotation
          End Site
          {
            OFFSET 0.134235 -1.35082 5.13018
          }
        }
      }
    }
  }
  JOINT RightUpLeg
  {
    OFFSET -4.94151 -1.41743 10.6446
    CHANNELS 3 Zrotation Xrotation Yrotation
    JOINT RightLeg
    {
      OFFSET -2.56294 -42.0364 -7.94377
      CHANNELS 3 Zrotation Xrotation Yrotation
      JOINT RightFoot
      {
        OFFSET -3.0952 -42.555 -4.02241
        CHANNELS 3 Zrotation Xrotation Yrotation
        JOINT RightToeBase
        {
          OFFSET -0.0828122 -6.13587 12.8035
          CHANNELS 3 Zrotation Xrotation Yrotation
          End Site
          {
            OFFSET -0.131328 -1.35082 5.13018
          }
        }
      }
    }
  }
}
MOTION
Frames:	8
Frame Time:	0.0333333
-15.0653 94.6004 11.4051 68.716 -30.9013 -10.0053 -70.1915 0 88.8779 68.1112 71.5048 15.891 7.17725 20.4461 6.56315 -130.702 35.7719 160.55 170.658 77.1407 -140.627 0.367853 -14.7241 -24.9516 -44.5402 26.3634 -142.996 15.1597 -1.57735 -95.0461 0.420958 0.000568959 0.358661 -2.2388 6.57111 48.3087 -108.813 -21.5411 76.0517 12.706 -6.37073 63.7941 0.58676 0.000330496 0.0646651 -45.4307 9.45522 89.6341 -2.5731 37.0156 -8.69795 0.412432 -10.1157 -0.907064 2.40467 -7.1775 7.34488 -48.4787 -13.4981 76.6618 2.90915 26.905 -7.90702 -3.00872 -1.70898 0.624727 1.38702 -6.67098 -5.60781 
-15.0835 94.6293 11.4186 68.6784 -30.8687 -10.01 -70.1915 0 88.8779 67.7064 71.4316 16.27 7.30804 20.4069 6.57241 -130.852 35.8177 160.963 168.982 76.9341 -138.988 0.361126 -14.7454 -25.0366 -44.6668 26.1337 -143.064 14.9456 -1.52719 -94.9477 0.420958 0.000568959 0.358661 -2.24524 6.65509 47.9835 -109.177 -21.7588 75.8941 13.5277 -6.78183 63.8434 0.58676 0.000330496 0.0646651 -45.3552 9.44479 89.5322 -2.59309 37.0611 -8.85374 0.411942 -10.1045 -0.906254 2.17143 -6.8376 7.70133 -48.5118 -13.5535 76.5622 2.95446 26.833 -8.08523 -2.33989 -2.12088 0.569871 1.28569 -5.64481 -5.38786 
-15.1013 94.6916 11.4489 68.6488 -30.8224 -10.1352 -70.1915 0 88.8779 67.0498 71.41 16.8022 7.48738 20.453 6.4904 -131.008 35.8367 160.919 169.852 77.0389 -140.024 0.356472 -14.7674 -25.0697 -44.95 25.1811 -143.324 14.0931 -1.37772 -94.717 0.420958 0.000568959 0.358661 -2.22816 6.75761 47.2448 -108.911 -22.5737 75.8217 12.7554 -6.37182 63.8767 0.58676 0.000330496 0.0646651 -45.2058 9.3517 89.5064 -2.64813 37.2767 -9.20602 0.0634537 -10.4089 -0.916528 1.57374 -5.98538 8.5745 -48.5315 -13.4965 76.6671 2.84977 26.6112 -7.87771 -2.93235 -1.67312 0.613056 1.3602 -6.31707 -5.60375 
-15.1679 94.6694 11.4341 68.5345 -30.8496 -10.3243 -70.1915 0 88.8779 67.3291 71.5576 16.4034 7.13046 20.5569 6.53116 -130.653 35.7859 160.63 170.004 77.0852 -139.998 0.395917 -14.5613 -24.8584 -44.3857 26.1394 -143.297 13.8855 -1.33188 -94.6189 0.420958 0.000568959 0.358661 -2.25134 6.61711 48.2574 -108.231 -21.4948 76.1585 12.8359 -6.27203 64.3538 0.58676 0.000330496 0.0646651 -45.087 9.27705 89.6003 -2.67536 37.3384 -9.42331 -0.215752 -10.5013 -0.913648 1.59173 -6.15585 9.12792 -48.1641 -13.5814 76.7013 2.69748 26.9922 -7.68624 -3.16854 -1.57568 0.636187 1.40736 -6.8564 -5.66778 
-15.1124 94.6533 11.4803 68.6823 -30.7172 -10.2022 -70.1915 0 88.8779 67.2153 71.5469 16.3764 7.15217 20.501 6.7399 -130.66 35.8342 160.977 168.831 76.9504 -138.826 0.402246 -14.4708 -25.0537 -44.327 25.5717 -143.112 13.7935 -1.3274 -94.6372 0.420958 0.000568959 0.358661 -2.27554 6.7188 48.1003 -108.902 -21.7115 76.0224 12.9274 -6.46277 63.8713 0.58676 0.000330496 0.0646651 -45.2115 9.28129 89.611 -2.67831 37.2859 -9.50574 0.044714 -10.2513 -0.90311 1.80477 -6.48752 8.95024 -48.339 -13.6943 76.548 2.69808 27.086 -8.09803 -2.38758 -2.17208 0.577866 1.2505 -5.90701 -4.89959 
-15.1153 94.6558 11.546 68.6015 -30.6311 -10.18 -70.1915 0 88.8779 66.3746 71.577 17.1128 7.1975 20.5677 6.94135 -130.264 35.8311 160.909 168.487 76.9429 -138.087 0.340817 -14.7968 -25.3323 -44.3134 25.3452 -142.731 13.5929 -1.3057 -94.6297 0.420958 0.000568959 0.358661 -2.31914 6.74462 48.5824 -108.262 -21.035 76.2496 12.3108 -6.05002 64.213 0.58676 0.000330496 0.0646651 -45.1076 9.34727 89.5583 -2.6803 37.2864 -9.52585 0.109426 -10.2508 -0.905585 1.75388 -6.38972 8.91819 -48.2614 -13.6543 76.4513 2.73078 27.191 -7.77598 -2.67155 -2.15774 0.609241 1.31733 -6.01437 -5.41877 
-15.1344 94.6542 11.5959 68.6643 -30.4195 -10.037 -70.1915 0 88.8779 67.3345 71.4032 16.3699 7.11992 20.4275 6.42938 -130.381 35.6899 160.88 169.123 76.8506 -138.624 0.435476 -14.3195 -24.7833 -43.7436 25.2199 -143.16 13.6786 -1.28381 -94.5082 0.420958 0.000568959 0.358661 -2.36396 6.78368 49.0175 -108.192 -20.896 76.4756 12.9165 -6.33683 64.2824 0.58676 0.000330496 0.0646651 -45.0647 9.29424 89.2694 -2.68683 37.3107 -9.56854 -0.157372 -10.1809 -0.889542 1.94109 -6.70893 8.87187 -48.3339 -13.6813 76.3271 2.75621 27.2526 -8.0335 -2.92201 -2.0433 0.631196 1.35201 -6.56798 -5.35426 
-15.1838 94.623 11.6286 68.8335 -30.2655 -9.85503 -70.1915 0 88.8779 69.0418 71.4178 14.9691 6.9126 20.447 5.75412 -130.47 35.4826 160.483 169.964 76.7937 -139.425 0.483815 -14.1257 -24.2358 -43.3175 25.099 -143.66 13.4687 -1.22064 -94.3342 0.420958 0.000568959 0.358661 -2.45343 6.97552 49.2944 -107.652 -21.0518 76.37 12.7148 -6.02027 65.0459 0.58676 0.000330496 0.0646651 -45.0866 9.27883 89.0636 -2.67532 37.3222 -9.43904 0.108835 -10.154 -0.897901 1.86787 -6.52296 8.63839 -48.39 -13.7003 76.1441 2.75089 27.4816 -8.19046 -2.70508 -2.20338 0.615726 1.32536 -6.38221 -5.2271 
